<svg width="1262" height="452" viewBox="0 0 1262 452" fill="none" xmlns="http://www.w3.org/2000/svg">
<path d="M549.1 220V133.24H583.78L597.82 186.16L611.98 133.24H646.54V220H623.14V157.12L606.22 220H589.42L572.44 157.12V220H549.1ZM662.772 220V133.24H686.112V220H662.772ZM737.724 221.2C733.244 221.2 728.804 220.64 724.404 219.52C720.044 218.4 716.024 216.7 712.344 214.42C708.704 212.14 705.704 209.28 703.344 205.84C700.984 202.36 699.624 198.28 699.264 193.6H723.024C723.464 195.64 724.344 197.38 725.664 198.82C726.984 200.26 728.764 201.38 731.004 202.18C733.284 202.94 736.004 203.32 739.164 203.32C741.044 203.32 742.944 203.1 744.864 202.66C746.784 202.18 748.384 201.4 749.664 200.32C750.984 199.2 751.644 197.68 751.644 195.76C751.644 193.24 750.604 191.52 748.524 190.6C746.444 189.64 743.984 188.9 741.144 188.38L726.324 185.74C721.164 184.82 716.744 183.28 713.064 181.12C709.384 178.92 706.564 176.06 704.604 172.54C702.684 169.02 701.724 164.8 701.724 159.88C701.724 154.04 703.344 149.06 706.584 144.94C709.824 140.78 714.224 137.62 719.784 135.46C725.344 133.26 731.584 132.16 738.504 132.16C746.064 132.16 752.484 133.32 757.764 135.64C763.084 137.96 767.164 141.18 770.004 145.3C772.844 149.42 774.324 154.16 774.444 159.52H751.284C751.044 157.32 750.364 155.54 749.244 154.18C748.124 152.82 746.604 151.82 744.684 151.18C742.804 150.5 740.524 150.16 737.844 150.16C733.524 150.16 730.504 150.92 728.784 152.44C727.064 153.96 726.204 155.6 726.204 157.36C726.204 159.16 726.904 160.7 728.304 161.98C729.744 163.22 732.284 164.14 735.924 164.74L748.824 166.84C754.864 167.8 759.804 169.48 763.644 171.88C767.524 174.28 770.384 177.28 772.224 180.88C774.064 184.48 774.984 188.6 774.984 193.24C774.984 198.88 773.344 203.8 770.064 208C766.824 212.16 762.404 215.4 756.804 217.72C751.204 220.04 744.844 221.2 737.724 221.2ZM787.694 220V133.24H851.774L851.654 152.56H811.214V166.96H845.054V185.8H811.034V200.56H851.894V220H787.694ZM865.389 220V133.24H904.749C912.269 133.24 918.309 134.48 922.869 136.96C927.469 139.44 930.809 142.8 932.889 147.04C934.969 151.24 936.009 155.96 936.009 161.2C936.009 165.64 935.409 169.44 934.209 172.6C933.049 175.72 931.429 178.4 929.349 180.64C927.309 182.84 924.949 184.76 922.269 186.4L937.509 220H913.569L900.969 190.12H888.729V220H865.389ZM888.729 172.72H902.109C905.109 172.72 907.589 171.54 909.549 169.18C911.549 166.82 912.549 164.24 912.549 161.44C912.549 158.44 911.469 155.88 909.309 153.76C907.149 151.6 904.749 150.52 902.109 150.52H888.729V172.72ZM945.925 220L976.645 133.24H1000.53L1031.25 220H1008.21L1002.45 203.2H975.085L969.205 220H945.925ZM980.005 183.28H997.165L988.645 155.56L980.005 183.28ZM1041.17 220V133.24H1075.85C1087.97 133.24 1096.79 135.22 1102.31 139.18C1107.87 143.1 1110.65 148.76 1110.65 156.16C1110.65 160.16 1109.65 163.7 1107.65 166.78C1105.65 169.86 1101.97 172.72 1096.61 175.36C1100.41 176.48 1103.39 177.9 1105.55 179.62C1107.75 181.34 1109.35 183.18 1110.35 185.14C1111.35 187.1 1111.99 189.06 1112.27 191.02C1112.55 192.94 1112.69 194.72 1112.69 196.36C1112.69 204.44 1110.01 210.4 1104.65 214.24C1099.33 218.08 1090.37 220 1077.77 220H1041.17ZM1064.51 202.48H1078.61C1082.05 202.48 1084.63 201.56 1086.35 199.72C1088.07 197.84 1088.93 195.76 1088.93 193.48C1088.93 191.88 1088.53 190.46 1087.73 189.22C1086.93 187.94 1085.79 186.94 1084.31 186.22C1082.87 185.46 1081.17 185.08 1079.21 185.08H1064.51V202.48ZM1064.51 167.08H1079.21C1080.61 167.08 1081.85 166.88 1082.93 166.48C1084.05 166.08 1084.99 165.54 1085.75 164.86C1086.55 164.14 1087.15 163.3 1087.55 162.34C1087.99 161.34 1088.21 160.28 1088.21 159.16C1088.21 156.56 1087.25 154.52 1085.33 153.04C1083.45 151.52 1081.13 150.76 1078.37 150.76H1064.51V167.08ZM1127.19 220V133.24H1150.53V200.8H1185.21V220H1127.19ZM1205.96 220V183.88L1175.42 133.24H1200.62L1217.78 164.08L1234.76 133.24H1260.26L1229.36 183.88V220H1205.96ZM549.1 320V233.24H613.18L613.06 252.56H572.62V266.96H606.46V285.8H572.44V300.56H613.3V320H549.1ZM626.795 320V233.24H661.475L675.515 286.16L689.675 233.24H724.235V320H700.835V257.12L683.915 320H667.115L650.135 257.12V320H626.795ZM740.467 320V233.24H774.787C781.187 233.24 786.947 234.38 792.067 236.66C797.227 238.94 801.307 242.28 804.307 246.68C807.307 251.04 808.807 256.36 808.807 262.64C808.807 268.36 807.547 273.28 805.027 277.4C802.507 281.48 798.927 284.62 794.287 286.82C789.647 289.02 784.147 290.12 777.787 290.12H763.807V320H740.467ZM763.567 272.72H777.067C780.027 272.72 782.487 271.54 784.447 269.18C786.407 266.82 787.387 264.24 787.387 261.44C787.387 258.44 786.307 255.88 784.147 253.76C782.027 251.6 779.667 250.52 777.067 250.52H763.567V272.72ZM820.506 320V233.24H843.846V300.8H878.526V320H820.506ZM926.658 321.2C918.058 321.2 910.598 319.38 904.278 315.74C897.998 312.06 893.138 306.9 889.698 300.26C886.258 293.62 884.538 285.8 884.538 276.8C884.538 267.76 886.278 259.9 889.758 253.22C893.278 246.5 898.198 241.3 904.518 237.62C910.838 233.9 918.218 232.04 926.658 232.04C935.058 232.04 942.398 233.9 948.678 237.62C954.958 241.3 959.838 246.5 963.318 253.22C966.798 259.9 968.538 267.76 968.538 276.8C968.538 285.76 966.818 293.58 963.378 300.26C959.978 306.9 955.138 312.06 948.858 315.74C942.578 319.38 935.178 321.2 926.658 321.2ZM926.658 302.48C929.858 302.48 932.698 301.68 935.178 300.08C937.698 298.44 939.658 295.78 941.058 292.1C942.498 288.38 943.218 283.4 943.218 277.16C943.218 270.72 942.498 265.58 941.058 261.74C939.658 257.86 937.698 255.06 935.178 253.34C932.698 251.62 929.858 250.76 926.658 250.76C923.458 250.76 920.598 251.62 918.078 253.34C915.598 255.06 913.638 257.86 912.198 261.74C910.758 265.58 910.038 270.72 910.038 277.16C910.038 283.4 910.758 288.38 912.198 292.1C913.638 295.78 915.598 298.44 918.078 300.08C920.598 301.68 923.458 302.48 926.658 302.48ZM997.01 320V283.88L966.47 233.24H991.67L1008.83 264.08L1025.81 233.24H1051.31L1020.41 283.88V320H997.01ZM1060.27 320V233.24H1124.35L1124.23 252.56H1083.79V266.96H1117.63V285.8H1083.61V300.56H1124.47V320H1060.27ZM1137.97 320V233.24C1138.61 233.24 1140.21 233.24 1142.77 233.24C1145.33 233.24 1148.29 233.24 1151.65 233.24C1155.05 233.2 1158.35 233.2 1161.55 233.24C1164.75 233.24 1167.29 233.28 1169.17 233.36C1179.61 233.72 1188.13 235.76 1194.73 239.48C1201.37 243.2 1206.25 248.22 1209.37 254.54C1212.49 260.86 1214.05 268.12 1214.05 276.32C1214.05 284.76 1212.43 292.28 1209.19 298.88C1205.95 305.44 1201.01 310.6 1194.37 314.36C1187.73 318.12 1179.29 320 1169.05 320H1137.97ZM1161.31 301.64H1169.77C1172.73 301.64 1175.73 300.82 1178.77 299.18C1181.85 297.5 1184.43 294.78 1186.51 291.02C1188.63 287.26 1189.69 282.24 1189.69 275.96C1189.69 270.64 1188.85 266.18 1187.17 262.58C1185.53 258.94 1183.21 256.2 1180.21 254.36C1177.21 252.52 1173.73 251.6 1169.77 251.6H1161.31V301.64ZM1219.76 320V296.48H1244.36V320H1219.76Z" fill="white"/>
<path d="M291.12 358.008C291.884 357.798 292.666 357.715 293.448 357.842C300.04 358.911 303.933 363.911 273.27 377.036C245.5 388.924 221.177 392.548 208.571 393.075C205.452 393.205 202.873 390.876 202.398 387.786L201.17 379.792C200.537 375.671 203.857 372 208.019 371.936C235.239 371.516 273.171 362.931 291.12 358.008Z" fill="white"/>
<path d="M131.66 371.42C130.615 366.827 134.936 362.998 139.525 364.03C147.911 365.917 159.511 368.087 171.07 369.111C174.155 369.384 176.706 371.691 177.174 374.757L178.709 384.822C179.351 389.032 175.882 392.724 171.658 392.237C159.996 390.894 144.505 388.591 137.694 385.831C136.404 385.309 135.477 384.218 134.991 382.913C133.738 379.54 132.588 375.499 131.66 371.42Z" fill="white"/>
<path d="M92.7454 352.92C92.2651 350.215 94.9543 349.284 97.4769 350.364C100.876 351.819 105.107 353.514 108.672 354.655C111.055 355.418 113.018 357.265 113.649 359.689C115.226 365.741 108.346 370.21 103.66 366.075C98.4127 361.443 93.9659 357.063 93.3023 355.07C93.0392 354.279 92.8597 353.563 92.7454 352.92Z" fill="white"/>
<path d="M278.437 316.117C281.944 315.401 285.432 317.536 286.149 321.048C287.008 325.257 287.738 329.595 288.43 333.972C288.944 337.225 286.955 340.36 283.762 341.142C255.161 348.14 220.078 347.438 201.228 345.795C198.028 345.516 195.583 342.871 195.443 339.657L195.027 330.079C194.855 326.122 198.196 322.922 202.147 323.097C229.824 324.321 261.073 319.666 278.437 316.117Z" fill="white"/>
<path d="M126.859 319.393C127.228 315.076 131.612 312.282 135.763 313.502C147.338 316.903 160.024 319.122 168.521 320.271C171.858 320.723 174.406 323.542 174.406 326.914V338.297C174.406 341.533 172.023 344.071 168.801 343.823C165.55 343.573 160.851 343.026 154.437 341.955C144.926 340.368 135.814 337.553 130.052 335.473C127.388 334.512 125.793 331.848 126.034 329.024L126.859 319.393Z" fill="white"/>
<path d="M356.358 284.76C358.773 283.66 361.891 284.189 362.176 286.83C362.713 291.802 358.711 300.243 341.035 311.137C327.245 319.636 319.147 324.447 314.687 326.992C311.968 328.543 309.5 327.28 308.895 324.206L306.68 312.946C306.094 309.964 307.63 306.969 310.392 305.71L356.358 284.76Z" fill="white"/>
<path d="M77.3817 295.988C77.8085 291.179 84.014 289.567 88.138 292.067C93.567 295.358 100.31 298.773 105.564 301.262C108.143 302.484 109.698 305.197 109.379 308.037L108.303 317.603C107.806 322.022 103.169 324.639 99.2595 322.529C93.3664 319.349 86.3419 315.056 81.7621 310.809C77.7251 307.065 76.911 301.291 77.3817 295.988Z" fill="white"/>
<path fill-rule="evenodd" clip-rule="evenodd" d="M92.7314 0C96.6198 1.58045e-05 100.307 1.73094 102.795 4.72384L152.556 64.5879L201.004 4.84678C203.491 1.78073 207.225 5.78019e-05 211.169 0H247.819C255.051 0 260.914 5.86059 260.914 13.1034V151.142C260.914 180.649 260.914 214.301 317.875 207.206C383.675 199.01 389.241 186.551 405.936 201.305C422.632 216.058 417.722 224.254 427.87 220.648C438.018 217.042 439.794 194.253 420.34 181.633C391.533 162.945 369.599 175.076 317.875 183.928C296.597 187.569 289.067 168.191 287.758 151.142V13.1143C287.758 5.87163 293.621 0.000258973 300.852 0H418.704C425.936 0 431.798 5.87147 431.798 13.1143V30.8186C431.798 38.0614 425.936 43.9329 418.704 43.9329H338.499V74.4237H407.246C414.478 74.4237 420.34 80.2951 420.34 87.5379V103.603C420.34 110.846 414.478 116.717 407.246 116.717H338.499V158.683C367.416 149.612 431.798 138.75 457.987 167.863C490.724 204.255 468.719 252.334 454.06 272.122C416.413 322.94 415.757 375.397 329.66 420.641C263.205 455.563 25.8658 483.917 25.8658 375.397V283.269C25.8658 269.171 -6.87056 238.352 1.31348 201.305C9.4976 164.257 43.5435 170.158 43.5435 146.88V13.1143C43.5435 5.87163 49.4064 0.000261676 56.6381 0H92.7314ZM84.397 212.78C54.9345 207.534 57.5528 193.764 38.2386 198.682C18.9243 203.6 14.014 229.828 29.3997 229.828C44.7854 229.828 39.5483 218.025 56.2436 223.927C72.9388 229.828 50.3511 228.845 53.2973 290.482C56.2436 352.119 73.9215 396.707 121.717 408.838C169.512 420.969 268.376 427.526 337.777 359.988C407.178 292.45 395.393 263.27 407.178 257.696C418.963 252.122 415.036 276.056 427.148 261.302C439.26 246.549 422.237 238.352 407.178 227.533C392.119 216.714 369.204 210.157 364.621 217.042C360.038 223.927 388.519 226.878 379.353 240.647C370.186 254.418 325.808 299.006 189.808 299.006C53.8095 299.006 76.5401 238.025 84.397 236.057C92.2536 234.09 100.438 234.09 109.931 227.533C119.425 220.976 123.353 213.435 118.77 207.534C114.187 201.633 108.622 216.058 84.397 212.78ZM153.798 144.585L96.8369 69.1779V147.208C97.4915 148.629 96.8364 151.47 88.9801 151.47C79.1591 151.47 63.773 147.864 63.773 161.306C63.773 174.748 88.3252 169.502 96.8369 170.814C103.647 171.863 148.124 186.988 169.512 194.419C168.857 201.96 164.405 219.599 151.834 229.828C136.121 242.614 135.139 252.778 157.072 268.187C179.005 283.597 177.369 291.137 224.509 279.662C271.649 268.188 284.417 269.827 301.767 254.417C319.117 239.008 320.754 238.352 308.314 234.09C295.875 229.828 273.286 218.025 258.882 223.927C244.479 229.828 245.788 238.024 258.882 238.025C271.977 238.025 287.035 245.237 258.882 252.122C230.729 259.007 218.943 264.253 199.629 263.27C180.315 262.286 166.238 250.483 169.512 243.27C172.786 236.057 206.504 205.239 208.796 178.354C210.629 156.847 209.559 96.6087 208.796 69.1779L153.798 144.585Z" fill="white"/>
</svg>
